<svg xmlns="http://www.w3.org/2000/svg" version="1.0" viewBox="1 0 34 36" style="fill:#000" aria-label="closed book"><path d="M35 26c0 2.209-1.791 4-4 4H5c-2.209 0-4-1.791-4-4V6.313C1 4.104 6.791 0 9 0h20.625C32.719 0 35 2.312 35 5.375V26z" style="fill:#a0041e"/><path d="M33 30c0 2.209-1.791 4-4 4H7c-2.209 0-4-1.791-4-4V6c0-4.119-.021-4 5-4h21c2.209 0 4 1.791 4 4v24z" style="fill:#ccd6dd"/><path d="M31 31c0 1.657-1.343 3-3 3H4c-1.657 0-3-1.343-3-3V7c0-1.657 1.343-3 3-3h24c1.657 0 3 1.343 3 3v24z" style="fill:#e1e8ed"/><path d="M31 32c0 2.209-1.791 4-4 4H6c-2.209 0-4-1.791-4-4V10c0-2.209 1.791-4 4-4h21c2.209 0 4 1.791 4 4v22z" style="fill:#be1931"/><path d="M29 32c0 2.209-1.791 4-4 4H6c-2.209 0-4-1.791-4-4V12c0-2.209 1.791-4 4-4h19.335C27.544 8 29 9.456 29 11.665V32z" style="fill:#df2549"/><path d="M6 6C4.312 6 4.269 4.078 5 3.25 5.832 2.309 7.125 2 9.438 2H11V0H8.281C4.312 0 1 2.5 1 5.375V32c0 2.209 1.791 4 4 4h2V6H6z" style="fill:#a0041e"/></svg>