<svg xmlns="http://www.w3.org/2000/svg" viewBox="3 3 16 16" width="125" height="125">
  <g transform="translate(-10.994 -2071.68) scale(1.99997)" fill="#da4453">
    <rect y="1037.36" x="7" height="8" width="8" fill="var(--color-primary)" rx="4"/>
    <path d="m13.577296 1040.285318-.483088-.483088c-.066272-.066316-.146845-.099452-.241544-.099452-.094743 0-.175272.033136-.241588.099452l-2.33042 2.333908-1.04435-1.048144c-.066316-.066316-.146845-.099452-.241544-.099452-.094743 0-.175272.033136-.241588.099452l-.483088.483088c-.066316.066315-.099452.146844-.099452.241587 0 .0947.033136.175272.099452.241544l1.285895 1.285895.483088.483088c.066272.066316.146801.099452.241544.099452.094699 0 .175272-.03318.241544-.099452l.483088-.483088 2.57179-2.57179c.066271-.066315.099451-.146844.099451-.241587.000004-.0947-.03318-.175272-.099452-.241544" fill="#fff"/>
    <animate attributeName="opacity" values="1;0" keyTimes="0;1" dur=".7s" begin="2s" fill="freeze"></animate>
  </g>
</svg>