<svg xmlns="http://www.w3.org/2000/svg" version="1.0" viewBox="4 9 40 30" style="fill:#000" aria-label="Blue ID Tag"><path d="M27 14h12a4 4 0 0 1 4 4v16a4 4 0 0 1-4 4H9a4 4 0 0 1-4-4V18a4 4 0 0 1 4-4h18Z" style="fill:#a4d8d8"/><path d="M39 14h-.141A3.977 3.977 0 0 1 39 15v16a4 4 0 0 1-4 4H5.141A3.99 3.99 0 0 0 9 38h30a4 4 0 0 0 4-4V18a4 4 0 0 0-4-4Z" style="fill:#83bdbd"/><path d="M39 39H9a5.006 5.006 0 0 1-5-5V18a5.006 5.006 0 0 1 5-5h12a1 1 0 0 1 0 2H9a3 3 0 0 0-3 3v16a3 3 0 0 0 3 3h30a3 3 0 0 0 3-3V18a3 3 0 0 0-3-3H27a1 1 0 0 1 0-2h12a5.006 5.006 0 0 1 5 5v16a5.006 5.006 0 0 1-5 5Z" style="fill:#000"/><path d="M21 10h6v5a3 3 0 0 1-3 3 3 3 0 0 1-3-3v-5Z" style="fill:#f2f2f2"/><path d="M25 10v4a3 3 0 0 1-3 3c-.083 0-.16-.018-.242-.024A2.989 2.989 0 0 0 27 15v-5Z" style="fill:#ccc"/><path d="M24 19a4 4 0 0 1-4-4v-5a1 1 0 0 1 1-1h6a1 1 0 0 1 1 1v5a4 4 0 0 1-4 4Zm-2-8v4a2 2 0 0 0 4 0v-4ZM20 32a1 1 0 0 1-1-1 4 4 0 0 0-8 0 1 1 0 0 1-2 0 6 6 0 0 1 12 0 1 1 0 0 1-1 1Z" style="fill:#000"/><circle cx="15" cy="23" r="3" style="fill:#f2f2f2"/><path d="M15 27a4 4 0 1 1 4-4 4 4 0 0 1-4 4Zm0-6a2 2 0 1 0 2 2 2 2 0 0 0-2-2ZM37 24H26a1 1 0 0 1 0-2h11a1 1 0 0 1 0 2ZM37 29H26a1 1 0 0 1 0-2h11a1 1 0 0 1 0 2Z" style="fill:#000"/></svg>