<svg xmlns="http://www.w3.org/2000/svg" viewBox="61.6 0 376.8 500.5" xml:space="preserve" style="fill:#000" aria-label="Realestate Key Icon">
  <path d="m335.5 417.9-42.4-11.8c-3-.8-5.2-4.1-4.4-7.1l9.6-47.6-.5-1.1-46.6-13.3c-3-.8-4.9-4.1-4.4-7.1l10.1-50.3c.3-1.4 0-3-.5-4.1l-9.3-16.7c-1.6-3-.5-6.6 2.2-8.2l56.6-34.5c3-1.9 6.8-.8 8.5 2.2l123.1 201.6c.8 1.4 1.1 2.7.8 4.1l-11.5 71.4c-.5 3.6-4.4 6-7.9 4.9L345 478.9l.3-.3-9.6-2.7c-3-.8-4.9-4.1-4.4-7.1l8.5-42.9c.6-3.9-1.3-6.9-4.3-8z" style="fill:#f6d138"/><path opacity=".05" d="m286.2 227.3 19.7-12c3-1.9 6.8-.8 8.5 2.2L437.5 419c.8 1.4 1.1 2.7.8 4.1l-6.8 41.6M418.9 499.7 345 478.4l.3-.3-9.6-2.7c-3-.8-4.9-4.1-4.4-7.1l8.5-42.9c.5-3.3-1.4-6.3-4.4-7.1L293 406.5c-3-.8-5.2-4.1-4.4-7.1l9.6-47.6-.5-1.1-46.5-13.4c-3-.8-4.9-4.1-4.4-7.1l10.1-50.3c.3-1.4 0-3-.5-4.1l-9.3-16.7c-1.6-3 15.3-16.1 18.1-18.1" style="fill:inherit"/><path opacity=".05" d="M418.9 499.7 345 478.4l.3-.3-9.6-2.7c-3-.8-4.9-4.1-4.4-7.1l8.5-42.9c.5-3.3-1.4-6.3-4.4-7.1L293 406.5c-3-.8-5.2-4.1-4.4-7.1l9.6-47.6-.5-1.1-46.5-13.4c-3-.8-4.9-4.1-4.4-7.1l10.1-50.3c.3-1.4 0-3-.5-4.1l-9.3-16.7c-1.6-3 15.3-16.1 18.1-18.1" style="fill:inherit"/><path d="M132.2 20.5c-.3 0-.3.3-.5.3-68.4 41-90.5 129.9-49.5 198.3s129.9 90.5 198.3 49.5c6-3.6 11.8-7.7 17.2-12 52-42.7 68.1-116.5 36.9-177.5l-11.5-18.9c-42.9-60.5-126-78.5-190.9-39.7zm73.9 120.6c-.5.3-.8.5-1.4.8 0 0-.3 0-.3.3-20.8 12.6-47.9 5.7-60.2-15s-5.7-47.9 15-60.2c0 0 .3 0 .3-.3.3-.3.5-.3.8-.5 20.5-11.5 46.8-4.9 59.1 15.6 12.1 20.2 6.1 46.5-13.3 59.3z" style="fill:#f6d138"/><path opacity=".05" d="M182 159.7c-19.1 0-37.2-10.1-47-26.5-7.7-12.6-9.8-27.4-6.3-41.3 3.6-14.2 12.3-26.3 24.9-33.6l.5-.3c8.5-4.9 18.1-7.7 27.6-7.7 19.4 0 36.9 9.8 47 26.5 15.3 25.7 7.1 59.4-18.3 74.9l-.3.3c-8.4 5-18.2 7.7-28.1 7.7zm0-100.1c-8.2 0-16.1 2.2-23 6.3l-.5.3C148.1 72.5 141 82.3 138 94.1c-3 11.8-1.1 24.1 5.2 34.5 8.2 13.7 23 22.2 39.1 22.2 8.2 0 16.4-2.2 23.2-6.6 0 0 .3 0 .3-.3 21.3-12.9 28.2-40.8 15.3-62.1-8.4-14-22.9-22.2-39.1-22.2z" style="fill:inherit"/><path opacity=".05" d="M206.4 282.8c-48.4 0-93.8-25.7-118.7-67C48.6 150.4 69.6 65.4 135 26c21.6-12.9 46.2-19.7 71.1-19.7 48.4 0 93.8 25.7 118.7 67 19.1 31.7 24.6 68.9 15.6 104.8-9 35.8-31.2 65.9-62.9 85.1-21.6 12.8-46 19.6-71.1 19.6zm-.3-264.2c-22.7 0-45.1 6.3-64.8 18.1-59.4 35.8-78.8 113.2-43 172.8 23 38.3 63.5 61 108 61 22.7 0 45.1-6.3 64.8-18.1 28.7-17.2 49.2-44.9 57.4-77.4s3-66.5-14.2-95.5C291.2 41.6 251 18.6 206.1 18.6z" style="fill:inherit"/><path d="M330.3 70c-2.2-3.6-4.4-6.8-6.8-10.1L335 78.8c-1.4-2.8-3.1-5.8-4.7-8.8z" style="fill:#f6d138"/><path opacity=".05" d="m334.9 78.8-11.5-18.9C280.2-.3 197.1-18.3 132.2 20.5l28.2 46c20.5-11.5 46.8-4.9 59.1 15.6 12 20.2 6 46.2-13.4 59.1l76.3 125 15.6-9.6c52.2-43 68.1-116.8 36.9-177.8z" style="fill:inherit"/>
</svg>