<svg xmlns="http://www.w3.org/2000/svg" version="1.0" viewBox="10.4 5.6 79.3 88.9" style="fill:#000" aria-label="Network Connections Illustration"><path d="M24.846 34.549c7.993 0 14.496-6.503 14.496-14.496S32.839 5.557 24.846 5.557 10.35 12.06 10.35 20.053s6.503 14.496 14.496 14.496zm0-24.992c5.787 0 10.496 4.708 10.496 10.496 0 5.787-4.708 10.496-10.496 10.496S14.35 25.841 14.35 20.053c0-5.787 4.709-10.496 10.496-10.496zM77.21 57.888c-6.859 0-12.44 5.581-12.44 12.44s5.581 12.439 12.44 12.439 12.44-5.58 12.44-12.439-5.581-12.44-12.44-12.44zm0 20.88c-4.654 0-8.44-3.786-8.44-8.439 0-4.654 3.786-8.44 8.44-8.44s8.44 3.786 8.44 8.44c0 4.652-3.786 8.439-8.44 8.439zM62.929 26.1c3.699 0 6.709-3.01 6.709-6.709s-3.01-6.709-6.709-6.709-6.709 3.01-6.709 6.709 3.009 6.709 6.709 6.709zm0-9.418c1.494 0 2.709 1.215 2.709 2.709S64.423 22.1 62.929 22.1s-2.709-1.215-2.709-2.709 1.215-2.709 2.709-2.709zM27.895 55.18c0-3.699-3.01-6.708-6.709-6.708s-6.709 3.009-6.709 6.708 3.01 6.709 6.709 6.709 6.709-3.01 6.709-6.709zm-9.418 0c0-1.493 1.215-2.709 2.709-2.709s2.709 1.216 2.709 2.709c0 1.494-1.215 2.709-2.709 2.709s-2.709-1.215-2.709-2.709zM24.846 81.025c-3.699 0-6.709 3.01-6.709 6.709s3.01 6.709 6.709 6.709 6.709-3.01 6.709-6.709-3.01-6.709-6.709-6.709zm0 9.418c-1.494 0-2.709-1.215-2.709-2.709s1.215-2.709 2.709-2.709 2.709 1.215 2.709 2.709-1.215 2.709-2.709 2.709z" style="fill:#009fda"/><path d="M66.665 61.164c.705-.851.586-2.111-.265-2.815l-6.074-5.03c.591-1.203.932-2.55.932-3.978 0-3.237-1.711-6.074-4.27-7.678l4.164-12.331c.354-1.046-.208-2.181-1.255-2.535-1.048-.353-2.182.208-2.534 1.255l-4.149 12.287c-.335-.038-.674-.061-1.019-.061-1.707 0-3.3.483-4.665 1.307l-7.618-9.347c-.699-.856-1.958-.985-2.814-.287-.856.698-.984 1.958-.287 2.814l7.819 9.595c-.866 1.31-1.392 2.857-1.476 4.521l-12.517 2.761c-1.079.238-1.76 1.306-1.522 2.384.206.934 1.033 1.569 1.951 1.569.143 0 .288-.015.433-.047l12.332-2.72c.551 1.316 1.406 2.472 2.474 3.388l-16.83 22.188c-.668.88-.496 2.135.385 2.803.361.273.786.406 1.207.406.604 0 1.202-.272 1.595-.791l17.236-22.723c.735.193 1.502.306 2.297.306 2.125 0 4.077-.74 5.624-1.969l6.031 4.994c.373.31.825.46 1.274.46.575-.001 1.146-.248 1.541-.726zm-14.47-6.76c-2.792 0-5.063-2.271-5.063-5.063s2.271-5.063 5.063-5.063c2.791 0 5.063 2.271 5.063 5.063s-2.272 5.063-5.063 5.063z" style="fill:#000"/></svg>